<svg width="595" height="594" viewBox="0 0 595 594" fill="none" xmlns="http://www.w3.org/2000/svg">
<path fill-rule="evenodd" clip-rule="evenodd" d="M332.702 455.071C349.111 471.391 370.894 480.368 394.111 480.368C417.327 480.368 439.111 471.391 455.52 455.071C471.942 438.752 480.97 417.071 480.97 393.979C480.97 370.903 471.944 349.224 455.521 332.904C439.113 316.57 417.327 307.59 394.111 307.59C370.894 307.59 349.112 316.567 332.703 332.901C316.281 349.22 307.251 370.903 307.251 393.979C307.251 417.071 316.279 438.752 332.702 455.071ZM498.598 468.494L578.508 547.971C586.673 556.092 586.671 569.259 578.503 577.377C570.34 585.49 557.11 585.488 548.949 577.373L469.033 497.902C447.338 513.482 421.388 521.961 394.111 521.961C359.749 521.961 327.415 508.643 303.132 484.46C278.838 460.311 265.433 428.155 265.433 393.979C265.433 359.802 278.838 327.646 303.134 303.496C327.417 279.314 359.75 265.998 394.111 265.998C428.472 265.998 460.804 279.314 485.087 303.496C509.383 327.645 522.789 359.802 522.789 393.979C522.789 421.111 514.249 446.919 498.598 468.494Z" fill="white"/>
<path d="M156.854 105.373C134.498 105.373 116.376 87.2508 116.376 64.8955V40.4779C116.376 18.1226 134.498 0 156.854 0H392.024C414.379 0 432.501 18.1226 432.501 40.4779V64.8955C432.501 87.2508 414.379 105.373 392.024 105.373H156.854Z" fill="white"/>
<path d="M443.529 546.01C450.569 543.772 457.437 541.042 464.09 537.84L505.404 578.923C492.153 588.57 475.972 594 458.887 594H90.0728C60.4887 594 33.618 577.72 19.9719 551.482C6.32579 525.244 8.35427 493.895 25.3197 469.659L169.104 294.792V147.454C169.104 144.26 171.693 141.671 174.887 141.671H216.009C219.203 141.671 221.792 144.26 221.792 147.454V304.223C221.792 310.335 219.658 316.262 215.786 320.951L142.84 409.597H193.549C216.715 409.597 235.445 427.565 243.486 449.29C251.426 470.745 264.013 490.412 280.69 506.995C310.958 537.139 351.372 553.765 394.111 553.765C411.127 553.765 427.761 551.108 443.529 546.01Z" fill="white"/>
<path d="M379.855 234.815C361.465 236.423 343.686 241.134 327.167 248.689V147.454C327.167 144.26 329.756 141.671 332.95 141.671H374.072C377.266 141.671 379.855 144.26 379.855 147.454V234.815Z" fill="white"/>
</svg>
