<svg width="1024" height="1024" viewBox="0 0 1024 1024" fill="none" xmlns="http://www.w3.org/2000/svg">
<rect x="80" y="100" width="824" height="824" rx="185" fill="url(#paint0_linear_1647_718)"/>
<path fill-rule="evenodd" clip-rule="evenodd" d="M237.443 258.857C209.168 287.288 185.625 320.429 168.093 357H80V359H167.142C145.377 405.131 133.15 456.645 133.001 511H80V513H133.001C133.15 567.355 145.377 618.869 167.142 665H80V667H168.093C185.625 703.571 209.168 736.712 237.443 765.143L133.293 869.293L134.707 870.707L238.857 766.557C267.288 794.832 300.429 818.375 337 835.907V924H339V836.858C385.131 858.623 436.645 870.85 491 870.999V924H493V870.999C547.355 870.85 598.869 858.623 645 836.858V924H647V835.907C683.571 818.375 716.712 794.832 745.143 766.557L849.5 870.914L850.914 869.5L746.557 765.143C774.832 736.712 798.375 703.571 815.907 667H904V665H816.858C838.623 618.869 850.85 567.355 850.999 513H904V511H850.999C850.85 456.645 838.623 405.131 816.858 359H904V357H815.907C798.375 320.429 774.832 287.288 746.557 258.857L850.914 154.5L849.5 153.086L745.143 257.443C716.712 229.168 683.571 205.625 647 188.093V100H645V187.142C598.869 165.377 547.355 153.15 493 153.001V100H491V153.001C436.645 153.15 385.131 165.377 339 187.142V100H337V188.093C300.429 205.625 267.288 229.168 238.857 257.443L134.707 153.293L133.293 154.707L237.443 258.857ZM335.586 357L238.857 260.271C210.964 288.319 187.702 320.976 170.313 357H335.586ZM814.645 665C836.54 618.91 848.85 567.385 848.999 513H710.998C710.733 572.141 687.027 625.745 648.691 665H814.645ZM645 665V513H493V665H645ZM491 665V513H339V665H491ZM340.131 667H491V728.998C432.269 728.733 379.049 705.136 340.131 667ZM335.586 667H170.313C187.702 703.024 210.964 735.681 238.857 763.729L335.586 667ZM335.309 665C296.973 625.745 273.267 572.141 273.002 513H135.001C135.15 567.385 147.46 618.91 169.355 665H335.309ZM493 667H643.869C604.951 705.136 551.731 728.733 493 728.998V667ZM648.414 667L745.143 763.729C773.036 735.681 796.298 703.024 813.687 667H648.414ZM135.001 511C135.15 456.615 147.46 405.09 169.355 359H335.309C296.973 398.255 273.267 451.859 273.002 511H135.001ZM339 511V359H491V511H339ZM493 511V359H645V511H493ZM493 357H643.868C604.951 318.864 551.731 295.267 493 295.002V357ZM813.687 357H648.414L745.143 260.271C773.036 288.319 796.298 320.976 813.687 357ZM710.998 511C710.733 451.859 687.027 398.255 648.691 359H814.645C836.54 405.09 848.85 456.615 848.999 511H710.998ZM340.132 357H491V295.002C432.269 295.267 379.049 318.863 340.132 357ZM275.002 513C275.267 571.731 298.864 624.951 337 663.868V513H275.002ZM337 511H275.002C275.267 452.269 298.864 399.049 337 360.132V511ZM647 513V663.868C685.136 624.951 708.733 571.731 708.998 513H647ZM708.998 511H647V360.132C685.136 399.049 708.733 452.269 708.998 511ZM339 189.355C385.09 167.46 436.615 155.15 491 155.001V293.002C431.859 293.267 378.255 316.973 339 355.309V189.355ZM339 668.691C378.255 707.027 431.859 730.733 491 730.998V868.999C436.615 868.85 385.09 856.54 339 834.645V668.691ZM493 730.998V868.999C547.385 868.85 598.91 856.54 645 834.645V668.691C605.745 707.027 552.141 730.733 493 730.998ZM493 155.001V293.002C552.141 293.267 605.745 316.973 645 355.309V189.355C598.91 167.46 547.385 155.15 493 155.001ZM647 833.687C683.024 816.298 715.681 793.036 743.729 765.143L647 668.414V833.687ZM647 190.313V355.586L743.729 258.857C715.681 230.964 683.024 207.702 647 190.313ZM337 355.586L240.271 258.857C268.319 230.964 300.976 207.702 337 190.313V355.586ZM337 668.414L337 833.687C300.976 816.298 268.319 793.036 240.271 765.143L337 668.414Z" fill="white" fill-opacity="0.5"/>
<path d="M695.477 324.726C656.99 306.792 616.427 294.173 574.814 287C569.139 297.389 563.935 308.027 559.343 318.914C515.067 312.233 469.941 312.233 425.637 318.914C420.927 308.027 415.752 297.389 410.078 287.123C368.316 294.299 327.754 306.915 289.268 324.852C212.764 439.517 192.118 551.461 202.499 661.67C247.273 695.191 297.339 720.672 350.565 737C362.526 720.672 373.142 703.234 382.208 685.047C364.924 678.493 348.167 670.454 332.229 660.804C336.469 657.715 340.563 654.621 344.541 651.156C438.3 695.935 546.68 695.935 640.466 651.156C644.444 654.497 648.539 657.715 652.634 660.804C636.725 670.33 619.937 678.493 602.682 685.047C611.867 703.234 622.365 720.55 634.297 736.876C687.523 720.55 737.59 695.069 782.362 661.549H782.509C794.674 533.895 761.746 423.064 695.477 324.726ZM395.309 593.862C366.445 593.862 342.669 567.019 342.669 534.365C342.669 501.711 365.86 474.869 395.309 474.869C424.759 474.869 448.389 501.711 447.921 534.365C447.921 567.019 424.613 593.862 395.309 593.862ZM589.612 593.862C560.747 593.862 536.971 567.019 536.971 534.365C536.971 501.711 560.279 474.869 589.612 474.869C618.914 474.869 642.689 501.711 642.221 534.365C642.221 567.019 618.914 593.862 589.612 593.862Z" fill="white"/>
<defs>
<linearGradient id="paint0_linear_1647_718" x1="492" y1="100" x2="492" y2="924" gradientUnits="userSpaceOnUse">
<stop offset="0.5" stop-color="#5865F2"/>
<stop offset="0.5001" stop-color="#FFD400"/>
</linearGradient>
</defs>
</svg>
